<svg width="32" height="32" viewBox="0 0 32 32" fill="none" xmlns="http://www.w3.org/2000/svg">
<path d="M29.1195 11.1109C29.2999 11.5813 29.1468 12.1117 28.7749 12.4562L26.407 14.6109C26.4671 15.0648 26.4999 15.5297 26.4999 16C26.4999 16.4703 26.4671 16.9352 26.407 17.3891L28.7749 19.5437C29.1468 19.8883 29.2999 20.4187 29.1195 20.8891C28.8788 21.5398 28.589 22.1688 28.2609 22.7648L28.0038 23.2078C27.6429 23.8094 27.2382 24.3781 26.7953 24.9195C26.4671 25.3078 25.9367 25.4445 25.4554 25.2914L22.4093 24.318C21.6765 24.8813 20.8179 25.3516 20.0031 25.7125L19.3195 28.8352C19.2101 29.3273 18.8273 29.6773 18.3242 29.8086C17.5695 29.9344 16.7929 30 15.9507 30C15.207 30 14.4304 29.9344 13.6757 29.8086C13.1726 29.6773 12.7898 29.3273 12.6804 28.8352L11.9968 25.7125C11.1328 25.3516 10.3234 24.8813 9.59057 24.318L6.54666 25.2914C6.06323 25.4445 5.53002 25.3078 5.20627 24.9195C4.76276 24.3781 4.35807 23.8094 3.99713 23.2078L3.74119 22.7648C3.40924 22.1688 3.12049 21.5398 2.87823 20.8891C2.70104 20.4187 2.85033 19.8883 3.22549 19.5437L5.59127 17.3891C5.53112 16.9352 5.49994 16.4703 5.49994 16C5.49994 15.5297 5.53112 15.0648 5.59127 14.6109L3.22549 12.4562C2.85033 12.1117 2.70104 11.5867 2.87823 11.1109C3.12049 10.4602 3.40979 9.83125 3.74119 9.23516L3.99658 8.79219C4.35807 8.19062 4.76276 7.62187 5.20627 7.0832C5.53002 6.69219 6.06323 6.55656 6.54666 6.71078L9.59057 7.68203C10.3234 7.11656 11.1328 6.64625 11.9968 6.28914L12.6804 3.16648C12.7898 2.66992 13.1726 2.27562 13.6757 2.19195C14.4304 2.06568 15.207 2 15.9999 2C16.7929 2 17.5695 2.06568 18.3242 2.19195C18.8273 2.27562 19.2101 2.66992 19.3195 3.16648L20.0031 6.28914C20.8179 6.64625 21.6765 7.11656 22.4093 7.68203L25.4554 6.71078C25.9367 6.55656 26.4671 6.69219 26.7953 7.0832C27.2382 7.62187 27.6429 8.19062 28.0038 8.79219L28.2609 9.23516C28.589 9.83125 28.8788 10.4602 29.1195 11.1109ZM15.9999 20.375C18.4171 20.375 20.3749 18.4172 20.3749 15.9508C20.3749 13.5828 18.4171 11.5758 15.9999 11.5758C13.5828 11.5758 11.6249 13.5828 11.6249 15.9508C11.6249 18.4172 13.5828 20.375 15.9999 20.375Z" fill="#675AE8"/>
</svg>
