<svg width="1440" height="168" viewBox="0 0 1440 168" fill="none" xmlns="http://www.w3.org/2000/svg">
<g clip-path="url(#clip0_82_1180)">
<path d="M1220.12 28.802C1319.21 5.45909 1406 83.7851 1437 125.866V161H0V28.6783C9.59278 23.9137 18.0928 35.9474 42.7005 49.0478C62.3867 59.5289 94.0013 39.9171 107.348 28.802C138.629 -18.2421 272.512 28.8021 336.325 4.98213C400.138 -18.8378 460.198 49.0488 511.915 75.8454C563.634 102.642 689.592 55.0038 755.49 28.802C821.389 2.60034 931.08 60.9577 1009.49 75.8454C1087.9 90.7325 1096.25 57.9802 1220.12 28.802Z" fill="#B6AEFF"/>
<path d="M210.816 57.1504C111.513 37.5769 31.0673 75.2924 0 110.578V168H1443V57.1504C1433.39 53.1558 1415.33 63.1423 1390.67 74.1274C1370.95 82.9154 1339.27 66.4707 1325.89 57.1504C1294.55 17.7039 1160.39 57.1504 1096.44 37.1775C1032.5 17.2046 972.314 74.1274 920.487 96.597C868.66 119.067 742.443 79.1207 676.408 57.1504C610.372 35.1802 500.452 84.1139 421.879 96.597C343.305 109.08 334.946 81.6172 210.816 57.1504Z" fill="#675AE8"/>
</g>
<defs>
<clipPath id="clip0_82_1180">
<rect width="1440" height="168" fill="white" transform="matrix(1 0 0 -1 0 168)"/>
</clipPath>
</defs>
</svg>
